Coordinates
version=1
nRows=26
nColumns=34
inDegrees=no

Units are S.I. units (second, meters, Newtons, ...)
If the header above contains a line with 'inDegrees', this indicates whether rotational values are in degrees (yes) or radians (no).

endheader
time	pelvis_tilt	pelvis_list	pelvis_rotation	pelvis_tx	pelvis_ty	pelvis_tz	hip_flexion_r	hip_adduction_r	hip_rotation_r	knee_angle_r	ankle_angle_r	subtalar_angle_r	mtp_angle_r	hip_flexion_l	hip_adduction_l	hip_rotation_l	knee_angle_l	ankle_angle_l	subtalar_angle_l	mtp_angle_l	lumbar_extension	lumbar_bending	lumbar_rotation	arm_flex_r	arm_add_r	arm_rot_r	elbow_flex_r	pro_sup_r	arm_flex_l	arm_add_l	arm_rot_l	elbow_flex_l	pro_sup_l
0.43	0.013088	-0.0579867	-0.12801	0.393172	0.949028	-0.208986	-0.15986	0.096617	0.0303356	0.135479	0.420296	0.140981	0	0.474939	-0.13381	-0.098113	0.190598	0.0489437	0.13953	0	-0.129151	0.0655751	0.083012	0.183952	-0.240523	-0.0405737	0.823727	2.09	-0.343631	-0.110111	-0.392914	0.385861	2.09
0.44	0.014736	-0.0618202	-0.135312	0.405666	0.946742	-0.208542	-0.179049	0.0970885	0.0385998	0.13256	0.428532	0.142245	0	0.466751	-0.137813	-0.092908	0.147749	0.0542451	0.125599	0	-0.13191	0.0688878	0.0881682	0.194403	-0.241814	-0.0340996	0.833443	2.09	-0.35689	-0.108593	-0.406344	0.384031	2.09
0.45	0.0162318	-0.064871	-0.142412	0.418217	0.944461	-0.208177	-0.197101	0.0963308	0.045789	0.131329	0.436481	0.144723	0	0.458725	-0.140937	-0.0835012	0.110812	0.0571935	0.100943	0	-0.134529	0.0712123	0.0934619	0.203279	-0.242576	-0.0291051	0.84335	2.09	-0.368725	-0.107436	-0.418272	0.382403	2.09
0.46	0.0170371	-0.0671256	-0.14927	0.430824	0.942181	-0.207861	-0.213114	0.0945002	0.0511406	0.132325	0.444184	0.149072	0	0.452769	-0.143912	-0.078629	0.0829079	0.0614091	0.079574	0	-0.136365	0.0725792	0.0990292	0.210158	-0.242734	-0.0260562	0.853523	2.09	-0.378941	-0.10705	-0.427033	0.380244	2.09
0.47	0.0176273	-0.0683029	-0.155632	0.443522	0.939972	-0.207613	-0.227595	0.0912962	0.054095	0.135458	0.45145	0.155527	0	0.448202	-0.145658	-0.075424	0.0639364	0.0645563	0.0572283	0	-0.13784	0.0725809	0.104469	0.215079	-0.242208	-0.0247705	0.863851	2.09	-0.387544	-0.107215	-0.434478	0.377984	2.09
0.48	0.0179489	-0.0683006	-0.161272	0.456333	0.937853	-0.20744	-0.240404	0.086734	0.0543643	0.140817	0.458034	0.163982	0	0.445528	-0.145907	-0.0751379	0.0548423	0.067432	0.0375599	0	-0.138769	0.0711114	0.109506	0.217928	-0.240941	-0.0252156	0.874264	2.09	-0.394508	-0.10801	-0.440561	0.375412	2.09
0.49	0.0180503	-0.0670199	-0.165969	0.469282	0.93585	-0.207355	-0.251607	0.0808133	0.0519839	0.148327	0.463607	0.174026	0	0.444835	-0.144422	-0.0778944	0.0556838	0.0706011	0.022896	0	-0.139078	0.0680664	0.113826	0.21869	-0.238903	-0.027202	0.884654	2.09	-0.39986	-0.10944	-0.445511	0.372476	2.09
0.5	0.0176476	-0.0636712	-0.169804	0.482356	0.933921	-0.207428	-0.257094	0.0703388	0.0207039	0.164879	0.47958	0.224344	0	0.44624	-0.140374	-0.0826147	0.0653157	0.0732457	0.0125148	0	-0.138276	0.0627089	0.117204	0.217459	-0.236037	-0.030694	0.894905	2.09	-0.403788	-0.110941	-0.45261	0.370152	2.09
0.51	0.0173681	-0.0599071	-0.172076	0.495661	0.932196	-0.207565	-0.266515	0.0625797	0.0210578	0.174106	0.478807	0.225228	0	0.448625	-0.135338	-0.0885864	0.082288	0.075952	0.00889495	0	-0.137044	0.0567267	0.119374	0.214071	-0.23271	-0.0345826	0.904813	2.09	-0.406133	-0.113994	-0.452901	0.365785	2.09
0.52	0.0168901	-0.054774	-0.173157	0.509166	0.930616	-0.207844	-0.274521	0.053531	0.0190865	0.185115	0.47641	0.227121	0	0.451699	-0.128353	-0.0940632	0.103836	0.075887	0.00807672	0	-0.134924	0.0491646	0.120393	0.208657	-0.228702	-0.0395686	0.914303	2.09	-0.407221	-0.117252	-0.45446	0.361924	2.09
0.53	0.01609	-0.0483736	-0.173079	0.522882	0.929184	-0.208285	-0.281045	0.0433592	0.0153743	0.197788	0.47191	0.229244	0	0.455037	-0.119455	-0.0980798	0.127437	0.071196	0.00814949	0	-0.131745	0.0402462	0.120349	0.201257	-0.224295	-0.0450604	0.923138	2.09	-0.407107	-0.120948	-0.455246	0.358103	2.09
0.54	0.0149133	-0.0408119	-0.171951	0.536812	0.92791	-0.208899	-0.28596	0.0321745	0.0103221	0.212254	0.464883	0.231202	0	0.458218	-0.108701	-0.100259	0.150897	0.0606332	0.00756799	0	-0.127483	0.0301452	0.119461	0.1919	-0.219633	-0.0509743	0.931181	2.09	-0.405804	-0.125051	-0.45497	0.354328	2.09
0.55	0.0133568	-0.0322624	-0.169913	0.550947	0.926819	-0.209683	-0.289059	0.0201038	0.00409051	0.228902	0.454945	0.23301	0	0.460912	-0.0962819	-0.100708	0.172759	0.0443097	0.00553628	0	-0.122217	0.0190839	0.117958	0.18068	-0.214825	-0.0572294	0.938284	2.09	-0.403298	-0.129474	-0.453602	0.35066	2.09
0.56	0.0114917	-0.0229699	-0.167108	0.565273	0.92594	-0.210629	-0.290092	0.00729485	-0.00336899	0.248344	0.44174	0.234977	0	0.462911	-0.0825479	-0.0998519	0.192554	0.0240142	0.00201968	0	-0.116145	0.00733747	0.116034	0.16776	-0.209939	-0.0637231	0.944295	2.09	-0.399568	-0.134098	-0.451152	0.347173	2.09
0.57	0.00946971	-0.0132345	-0.16364	0.579771	0.925307	-0.211718	-0.28883	-0.00607558	-0.012137	0.271285	0.424876	0.237372	0	0.464179	-0.0679553	-0.0982624	0.210837	0.00298216	-0.00246963	0	-0.109563	-0.00477862	0.113789	0.153365	-0.205006	-0.0703145	0.949043	2.09	-0.39461	-0.13879	-0.447648	0.344	2.09
0.58	0.00750532	-0.00338291	-0.159541	0.594416	0.924953	-0.212935	-0.285085	-0.0197854	-0.0220824	0.298422	0.403844	0.239988	0	0.464833	-0.0529769	-0.0964991	0.228883	-0.0148773	-0.00714668	0	-0.102848	-0.0169313	0.111196	0.137782	-0.200031	-0.0768297	0.952327	2.09	-0.388451	-0.1434	-0.443171	0.341376	2.09
0.59	0.00583675	0.00627325	-0.154762	0.609173	0.924904	-0.214272	-0.278678	-0.0335582	-0.0326806	0.330396	0.37798	0.241824	0	0.465032	-0.0380098	-0.0950007	0.248112	-0.026021	-0.01112	0	-0.0964052	-0.0288048	0.108084	0.121363	-0.195001	-0.0830866	0.953903	2.09	-0.381148	-0.147767	-0.43789	0.339642	2.09
0.6	0.00445916	0.0157394	-0.149187	0.623997	0.925154	-0.215748	-0.268708	-0.0479973	-0.0461263	0.368622	0.347954	0.245863	0	0.465082	-0.0231179	-0.0943469	0.26943	-0.0281279	-0.0130988	0	-0.0903225	-0.0403633	0.104181	0.104435	-0.18986	-0.0890316	0.953538	2.09	-0.372802	-0.151742	-0.432098	0.339192	2.09
0.61	0.00413429	0.0243497	-0.142762	0.638827	0.925781	-0.217326	-0.256519	-0.060688	-0.0535165	0.411556	0.309212	0.237542	0	0.46368	-0.00870547	-0.0933639	0.292151	-0.0214096	-0.0139019	0	-0.0857244	-0.0510382	0.0991768	0.0876682	-0.184643	-0.0942169	0.950824	2.09	-0.36336	-0.15519	-0.425866	0.340227	2.09
0.62	0.00430617	0.032784	-0.135478	0.653588	0.926709	-0.219051	-0.239998	-0.0736191	-0.0608623	0.461481	0.264102	0.22498	0	0.461018	0.00585666	-0.092466	0.315047	-0.00722012	-0.0126246	0	-0.0819936	-0.0614114	0.092894	0.0712677	-0.179223	-0.0989016	0.945654	2.09	-0.352933	-0.158068	-0.41947	0.3429	2.09
0.63	0.00498151	0.041394	-0.127476	0.668204	0.927915	-0.220927	-0.218857	-0.0872235	-0.0674426	0.518227	0.211656	0.205855	0	0.456253	0.021047	-0.0910811	0.336023	0.0116827	-0.00998135	0	-0.079241	-0.071845	0.0852272	0.0556447	-0.173581	-0.102951	0.937885	2.09	-0.341539	-0.16038	-0.412871	0.34714	2.09
0.64	0.00569074	0.0504607	-0.11904	0.682597	0.929326	-0.222927	-0.192612	-0.101698	-0.0723318	0.580945	0.150422	0.177192	0	0.449374	0.036902	-0.0896994	0.353604	0.0331903	-0.00527624	0	-0.0770056	-0.0825801	0.0763289	0.0409989	-0.167689	-0.106393	0.927536	2.09	-0.329255	-0.162229	-0.40575	0.352776	2.09
0.65	0.00645826	0.0604025	-0.110484	0.696718	0.930892	-0.22504	-0.161865	-0.118261	-0.0770169	0.647945	0.0809545	0.141465	0	0.43978	0.0541401	-0.0868822	0.366129	0.0538961	-0.0018559	0	-0.0753554	-0.0940399	0.0663544	0.0275168	-0.161597	-0.109202	0.914861	2.09	-0.316167	-0.163656	-0.398232	0.359878	2.09
0.66	0.0068121	0.071004	-0.102104	0.710536	0.932524	-0.227204	-0.127219	-0.136634	-0.0809135	0.7166	0.0037957	0.0983493	0	0.428082	0.0721817	-0.0832656	0.373611	0.0730648	0.000913057	0	-0.0737778	-0.105953	0.0556399	0.0151786	-0.155343	-0.111487	0.900124	2.09	-0.302457	-0.164826	-0.389827	0.368452	2.09
0.67	0.00662577	0.0817081	-0.0941622	0.724045	0.934164	-0.229338	-0.0899464	-0.156034	-0.0836407	0.783979	-0.0778609	0.0494411	0	0.41471	0.0901116	-0.0794088	0.37662	0.0906335	0.00366731	0	-0.0721395	-0.117738	0.0445306	0.00398857	-0.148993	-0.113367	0.883564	2.09	-0.28827	-0.16587	-0.38025	0.378609	2.09
0.68	0.00599362	0.0917754	-0.0868759	0.737258	0.935793	-0.231358	-0.0514656	-0.175221	-0.0848248	0.847603	-0.157877	-0.00266088	0	0.399931	0.106864	-0.0757809	0.375984	0.106946	0.00707804	0	-0.0705404	-0.128656	0.0333669	-0.00602278	-0.142604	-0.115021	0.865307	2.09	-0.273639	-0.166902	-0.369323	0.390364	2.09
